<?xml version="1.0" encoding="UTF-8" standalone="no"?>
<!-- Created with Inkscape (http://www.inkscape.org/) -->

<svg
   xmlns:dc="http://purl.org/dc/elements/1.1/"
   xmlns:cc="http://creativecommons.org/ns#"
   xmlns:rdf="http://www.w3.org/1999/02/22-rdf-syntax-ns#"
   xmlns:svg="http://www.w3.org/2000/svg"
   xmlns="http://www.w3.org/2000/svg"
   version="1.1"
   width="300"
   height="406.23383"
   id="svg12390">
  <defs
     id="defs12392" />
  <metadata
     id="metadata12395">
    <rdf:RDF>
      <cc:Work
         rdf:about="">
        <dc:format>image/svg+xml</dc:format>
        <dc:type
           rdf:resource="http://purl.org/dc/dcmitype/StillImage" />
        <cc:license
           rdf:resource="" />
        <dc:title></dc:title>
      </cc:Work>
    </rdf:RDF>
  </metadata>
  <g
     transform="translate(-192.3104,-274.69574)"
     id="layer1">
    <g
       transform="matrix(14.22231,0,0,14.22231,-5921.6206,-8221.4463)"
       id="g12251">
      <g
         transform="matrix(1.25,0,0,-1.25,440.34711,607.42869)"
         id="g3008">
        <path
           d="M 0,0 -4.041,3.518 -7.559,0.19 -4.278,-3.28 -7.416,-6.418 -3.851,-9.935 0,-6.418 l 3.993,-3.517 3.28,3.612 -2.9,3.233 2.9,3.328 L 3.613,3.375 0,0 Z"
           id="path3010"
           style="fill:#1e8ed1;fill-opacity:1;fill-rule:nonzero;stroke:none" />
      </g>
      <g
         transform="matrix(1.25,0,0,-1.25,433.75187,625.80819)"
         id="g3012"
         style="fill:#000000">
        <path
           d="M 0,0 -0.728,0 -0.827,0.224 -0.999,0.073 c -0.156,-0.12 -0.374,-0.182 -0.64,-0.182 -0.894,0 -1.456,0.702 -1.456,1.815 0,1.145 0.619,1.831 1.654,1.831 0.369,0 0.676,-0.099 0.926,-0.296 0.109,-0.083 0.198,-0.182 0.27,-0.291 0.105,-0.162 0.151,-0.281 0.224,-0.588 L -1.092,2.226 c -0.073,0.271 -0.182,0.385 -0.365,0.385 -0.239,0 -0.379,-0.374 -0.379,-1.019 0,-0.52 0.13,-0.817 0.374,-0.817 0.198,0 0.302,0.13 0.328,0.411 l -0.447,0 0,0.817 L 0,2.003 0,0"
           id="path3014"
           style="fill:#000000;fill-opacity:1;fill-rule:nonzero;stroke:none" />
      </g>
      <g
         transform="matrix(1.25,0,0,-1.25,438.34886,625.80819)"
         id="g3016"
         style="fill:#000000">
        <path
           d="m 0,0 -1.222,0 -0.188,0.593 -0.879,0 L -2.44,0 -3.449,0 -2.455,3.47 -1.15,3.47 0,0 m -2.091,1.446 0.432,0 L -1.893,2.268 -2.091,1.446 Z"
           id="path3018"
           style="fill:#000000;fill-opacity:1;fill-rule:nonzero;stroke:none" />
      </g>
      <g
         transform="matrix(1.25,0,0,-1.25,443.32325,625.80819)"
         id="g3020"
         style="fill:#000000">
        <path
           d="m 0,0 -1.139,0 0,1.93 -0.515,-1.93 -0.713,0 -0.489,1.883 0,-1.883 -0.889,0 0,3.47 1.503,0 L -1.857,2.107 -1.493,3.47 0,3.47 0,0 Z"
           id="path3022"
           style="fill:#000000;fill-opacity:1;fill-rule:nonzero;stroke:none" />
      </g>
      <g
         transform="matrix(1.25,0,0,-1.25,447.06212,622.61555)"
         id="g3024"
         style="fill:#000000">
        <path
           d="m 0,0 -1.306,0 0,-0.348 1.051,0 0,-0.89 -1.051,0 0,-0.385 1.353,0 0,-0.931 -2.57,0 0,3.47 L 0,0.916 0,0 Z"
           id="path3026"
           style="fill:#000000;fill-opacity:1;fill-rule:nonzero;stroke:none" />
      </g>
      <g
         transform="matrix(1.25,0,0,-1.25,450.18299,622.73905)"
         id="g3028"
         style="fill:#000000">
        <path
           d="m 0,0 c -0.328,0.177 -0.505,0.234 -0.728,0.234 -0.177,0 -0.302,-0.068 -0.302,-0.166 0,-0.078 0.058,-0.125 0.198,-0.151 l 0.25,-0.042 0.223,-0.042 c 0.182,-0.031 0.442,-0.15 0.619,-0.286 0.245,-0.187 0.37,-0.457 0.37,-0.801 0,-0.796 -0.593,-1.284 -1.561,-1.284 -0.276,0 -0.525,0.036 -0.744,0.109 -0.244,0.078 -0.406,0.187 -0.728,0.473 l 0.671,0.619 c 0.203,-0.14 0.302,-0.198 0.432,-0.244 0.13,-0.047 0.296,-0.084 0.405,-0.084 0.172,0 0.266,0.058 0.266,0.167 0,0.109 -0.13,0.182 -0.385,0.208 -0.812,0.083 -1.316,0.515 -1.316,1.129 0,0.775 0.624,1.274 1.597,1.274 0.369,0 0.697,-0.067 0.962,-0.197 C 0.364,0.848 0.453,0.78 0.635,0.603 L 0,0"
           id="path3030"
           style="fill:#000000;fill-opacity:1;fill-rule:nonzero;stroke:none" />
      </g>
      <g
         transform="matrix(1.25,0,0,-1.25,431.70188,599.10907)"
         id="g3032"
         style="fill:#000000">
        <path
           d="m 0,0 0.354,1.382 0.873,0 0.363,-1.391 0.339,1.391 0.849,0 -0.858,-3.146 -0.934,0 -0.326,1.302 -0.306,-1.302 -0.929,0 -0.878,3.146 1.147,0 L 0,0 Z"
           id="path3034"
           style="fill:#000000;fill-opacity:1;fill-rule:nonzero;stroke:none" />
      </g>
      <path
         d="m 436.81375,601.31468 -1.3325,0 0,-3.9325 1.3325,0 L 436.81375,601.31468 Z"
         id="path3036"
         style="fill:#000000;fill-opacity:1;fill-rule:nonzero;stroke:none" />
      <g
         transform="matrix(1.25,0,0,-1.25,440.52312,601.31419)"
         id="g3038"
         style="fill:#000000">
        <path
           d="m 0,0 -0.934,0 -0.826,1.453 0,-1.453 -0.783,0 0,3.146 0.963,0 0.802,-1.222 0,1.222 L 0,3.146 0,0 Z"
           id="path3040"
           style="fill:#000000;fill-opacity:1;fill-rule:nonzero;stroke:none" />
      </g>
      <g
         transform="matrix(1.25,0,0,-1.25,443.89587,598.41305)"
         id="g3042"
         style="fill:#000000">
        <path
           d="m 0,0 -0.66,0 0,-2.321 -1.109,0 0,2.321 -0.717,0 0,0.825 L 0,0.825 0,0 Z"
           id="path3044"
           style="fill:#000000;fill-opacity:1;fill-rule:nonzero;stroke:none" />
      </g>
      <g
         transform="matrix(1.25,0,0,-1.25,447.02112,598.41905)"
         id="g3046"
         style="fill:#000000">
        <path
           d="m 0,0 -1.184,0 0,-0.316 0.953,0 0,-0.807 -0.953,0 0,-0.349 1.226,0 0,-0.844 -2.33,0 0,3.146 L 0,0.83 0,0 Z"
           id="path3048"
           style="fill:#000000;fill-opacity:1;fill-rule:nonzero;stroke:none" />
      </g>
      <g
         transform="matrix(1.25,0,0,-1.25,449.31464,597.3813)"
         id="g3050"
         style="fill:#000000">
        <path
           d="m 0,0 c 0.429,0 0.703,-0.104 0.92,-0.344 0.165,-0.184 0.245,-0.401 0.245,-0.637 0,-0.175 -0.042,-0.33 -0.127,-0.467 -0.09,-0.146 -0.165,-0.208 -0.373,-0.321 l 0.552,-1.377 -1.189,0 -0.372,1.103 -0.066,0 0,-1.103 -1.076,0 0,3.146 L 0,0 m -0.255,-1.25 c 0.208,0 0.312,0.076 0.312,0.231 0,0.151 -0.109,0.227 -0.316,0.227 l -0.151,0 0,-0.458 0.155,0"
           id="path3052"
           style="fill:#000000;fill-opacity:1;fill-rule:nonzero;stroke:none" />
      </g>
      <g
         transform="matrix(1.25,0,0,-1.25,443.36412,611.37469)"
         id="g3054"
         style="fill:#000000">
        <path
           d="m 0,0 c 0,-1.298 -1.052,-2.35 -2.35,-2.35 -1.298,0 -2.35,1.052 -2.35,2.35 0,1.298 1.052,2.35 2.35,2.35 C -1.052,2.35 0,1.298 0,0"
           id="path3056"
           style="fill:#000000;fill-opacity:1;fill-rule:nonzero;stroke:none" />
      </g>
      <g
         transform="matrix(1.25,0,0,-1.25,446.76926,611.37469)"
         id="g3058"
         style="fill:#000000">
        <path
           d="M 0,0 3.331,3.331 -1.078,7.74 -1.568,7.251 -5.074,3.744 -9.071,7.74 -13.48,3.331 c 0,0 2.619,-2.618 3.332,-3.331 -0.713,-0.713 -3.332,-3.331 -3.332,-3.331 l 4.409,-4.409 3.997,3.996 3.996,-3.996 4.409,4.409 c 0,0 -2.618,2.618 -3.331,3.331 m -1.078,-5.781 c -0.662,0.662 -2.336,2.337 -2.638,2.639 l 0,0.748 c -0.401,-0.228 -0.864,-0.358 -1.358,-0.358 -0.494,0 -0.957,0.13 -1.358,0.358 l 0,-0.748 c -0.302,-0.302 -1.977,-1.977 -2.639,-2.639 -0.6,0.6 -1.849,1.85 -2.449,2.45 C -10.807,-2.618 -8.189,0 -8.189,0 l -3.331,3.331 c 0.6,0.6 1.849,1.85 2.449,2.45 0.662,-0.662 2.337,-2.337 2.639,-2.639 l 0,-0.748 c 0.401,0.228 0.864,0.358 1.358,0.358 0.494,0 0.957,-0.13 1.358,-0.358 l 0,0.748 c 0.302,0.302 1.976,1.977 2.638,2.639 l 2.45,-2.45 C 0.659,2.618 -1.96,0 -1.96,0 c 0,0 2.619,-2.618 3.332,-3.331 l -2.45,-2.45"
           id="path3060"
           style="fill:#000000;fill-opacity:1;fill-rule:nonzero;stroke:none" />
      </g>
      <g
         transform="matrix(1.25,0,0,-1.25,440.4265,608.91143)"
         id="g3062">
        <path
           d="m 0,0 c -1.099,0 -1.959,-0.866 -1.959,-1.971 0,-1.105 0.86,-1.97 1.959,-1.97 1.098,0 1.959,0.865 1.959,1.97 C 1.959,-0.866 1.098,0 0,0 m 0.917,-2.886 c 0.102,0.274 0.165,0.554 0.177,0.785 l 0.59,0 C 1.66,-2.475 1.525,-2.814 1.291,-3.088 c -0.1,0.067 -0.225,0.135 -0.374,0.202 m -0.787,0.231 0,0.554 0.704,0 C 0.819,-2.319 0.768,-2.551 0.681,-2.795 0.489,-2.718 0.301,-2.67 0.13,-2.655 m 0.974,-0.617 c -0.155,-0.133 -0.328,-0.232 -0.51,-0.293 0.089,0.137 0.165,0.288 0.229,0.451 0.104,-0.047 0.198,-0.1 0.281,-0.158 m -0.27,1.432 -0.704,0 0,0.554 c 0.171,0.015 0.359,0.063 0.551,0.14 C 0.768,-1.385 0.82,-1.618 0.834,-1.84 M 0.828,-0.822 C 0.762,-0.663 0.682,-0.508 0.595,-0.373 0.778,-0.437 0.951,-0.538 1.104,-0.669 1.022,-0.724 0.93,-0.776 0.828,-0.822 M 0.13,-1.02 l 0,0.752 0.103,-0.012 C 0.382,-0.488 0.503,-0.702 0.597,-0.918 0.441,-0.971 0.279,-1.006 0.13,-1.02 m 0,-2.653 0,0.752 C 0.282,-2.935 0.439,-2.968 0.591,-3.018 0.493,-3.254 0.37,-3.475 0.233,-3.661 L 0.13,-3.673 m 1.554,1.833 -0.591,0 c -0.016,0.233 -0.078,0.507 -0.176,0.785 0.151,0.068 0.274,0.134 0.374,0.202 0.234,-0.274 0.369,-0.613 0.393,-0.987 m -3.368,0 c 0.024,0.374 0.159,0.713 0.393,0.987 0.099,-0.067 0.222,-0.134 0.374,-0.202 -0.099,-0.278 -0.16,-0.553 -0.176,-0.785 L -1.684,-1.84 z m 0.766,-1.046 c -0.149,-0.067 -0.274,-0.135 -0.373,-0.202 -0.234,0.274 -0.369,0.613 -0.393,0.987 l 0.59,0 c 0.012,-0.231 0.074,-0.511 0.176,-0.785 m 0.084,0.785 0.704,0 0,-0.554 c -0.171,-0.015 -0.36,-0.063 -0.551,-0.14 -0.087,0.244 -0.138,0.476 -0.153,0.694 m 0.011,-1.013 c 0.062,-0.161 0.14,-0.314 0.229,-0.451 -0.182,0.061 -0.356,0.16 -0.511,0.293 0.084,0.058 0.178,0.111 0.282,0.158 m 0.693,0.193 0,-0.752 -0.103,0.012 c -0.138,0.186 -0.26,0.407 -0.358,0.643 0.152,0.05 0.309,0.083 0.461,0.097 m 0,1.635 0,-0.554 -0.704,0 c 0.015,0.222 0.066,0.455 0.152,0.694 0.192,-0.077 0.381,-0.125 0.552,-0.14 m -0.975,0.617 c 0.155,0.133 0.326,0.232 0.51,0.296 -0.087,-0.136 -0.167,-0.29 -0.233,-0.449 -0.101,0.046 -0.194,0.098 -0.277,0.153 m 0.975,0.401 0,-0.752 c -0.149,0.014 -0.311,0.049 -0.467,0.102 0.093,0.216 0.215,0.43 0.364,0.638 l 0.103,0.012"
           id="path3064"
           style="fill:#ffffff;fill-opacity:1;fill-rule:nonzero;stroke:none" />
      </g>
    </g>
  </g>
</svg>
